<svg width="271" height="24" viewBox="0 0 271 24" fill="none" xmlns="http://www.w3.org/2000/svg">
<path d="M3 8L10.8906 13.2604C11.5624 13.7083 12.4376 13.7083 13.1094 13.2604L21 8M5 19H19C20.1046 19 21 18.1046 21 17V7C21 5.89543 20.1046 5 19 5H5C3.89543 5 3 5.89543 3 7V17C3 18.1046 3.89543 19 5 19Z" stroke="white" stroke-width="2" stroke-linecap="round" stroke-linejoin="round"/>
<path d="M45.104 17V5.48H46.448V10.424C46.7147 9.93333 47.0933 9.55467 47.584 9.288C48.0747 9.01067 48.608 8.872 49.184 8.872C50.1013 8.872 50.8373 9.16 51.392 9.736C51.9467 10.3013 52.224 11.176 52.224 12.36V17H50.896V12.504C50.896 10.8507 50.2293 10.024 48.896 10.024C48.2027 10.024 47.6213 10.2747 47.152 10.776C46.6827 11.2667 46.448 11.9707 46.448 12.888V17H45.104ZM56.9003 17.192C56.2389 17.192 55.6896 17.08 55.2523 16.856C54.8149 16.632 54.4896 16.3333 54.2763 15.96C54.0629 15.5867 53.9563 15.1813 53.9563 14.744C53.9563 13.9333 54.2656 13.3093 54.8843 12.872C55.5029 12.4347 56.3456 12.216 57.4123 12.216H59.5563V12.12C59.5563 11.4267 59.3749 10.904 59.0123 10.552C58.6496 10.1893 58.1643 10.008 57.5563 10.008C57.0336 10.008 56.5803 10.1413 56.1963 10.408C55.8229 10.664 55.5883 11.0427 55.4923 11.544H54.1163C54.1696 10.968 54.3616 10.4827 54.6923 10.088C55.0336 9.69333 55.4549 9.39467 55.9563 9.192C56.4576 8.97867 56.9909 8.872 57.5563 8.872C58.6656 8.872 59.4976 9.17067 60.0523 9.768C60.6176 10.3547 60.9003 11.1387 60.9003 12.12V17H59.7003L59.6203 15.576C59.3963 16.024 59.0656 16.408 58.6283 16.728C58.2016 17.0373 57.6256 17.192 56.9003 17.192ZM57.1083 16.056C57.6203 16.056 58.0576 15.9227 58.4203 15.656C58.7936 15.3893 59.0763 15.0427 59.2683 14.616C59.4603 14.1893 59.5563 13.7413 59.5563 13.272V13.256H57.5243C56.7349 13.256 56.1749 13.3947 55.8443 13.672C55.5243 13.9387 55.3643 14.2747 55.3643 14.68C55.3643 15.096 55.5136 15.432 55.8123 15.688C56.1216 15.9333 56.5536 16.056 57.1083 16.056ZM62.9165 20.52V9.064H64.1325L64.2605 10.376C64.5165 9.992 64.8792 9.64533 65.3485 9.336C65.8285 9.02667 66.4365 8.872 67.1725 8.872C67.9618 8.872 68.6498 9.05333 69.2365 9.416C69.8232 9.77867 70.2765 10.2747 70.5965 10.904C70.9272 11.5333 71.0925 12.248 71.0925 13.048C71.0925 13.848 70.9272 14.5627 70.5965 15.192C70.2765 15.8107 69.8178 16.3013 69.2205 16.664C68.6338 17.016 67.9458 17.192 67.1565 17.192C66.5058 17.192 65.9245 17.0587 65.4125 16.792C64.9112 16.5253 64.5272 16.152 64.2605 15.672V20.52H62.9165ZM67.0125 16.024C67.5458 16.024 68.0152 15.9013 68.4205 15.656C68.8258 15.4 69.1458 15.048 69.3805 14.6C69.6152 14.152 69.7325 13.6293 69.7325 13.032C69.7325 12.4347 69.6152 11.912 69.3805 11.464C69.1458 11.016 68.8258 10.6693 68.4205 10.424C68.0152 10.168 67.5458 10.04 67.0125 10.04C66.4792 10.04 66.0098 10.168 65.6045 10.424C65.1992 10.6693 64.8792 11.016 64.6445 11.464C64.4098 11.912 64.2925 12.4347 64.2925 13.032C64.2925 13.6293 64.4098 14.152 64.6445 14.6C64.8792 15.048 65.1992 15.4 65.6045 15.656C66.0098 15.9013 66.4792 16.024 67.0125 16.024ZM72.9634 20.52V9.064H74.1794L74.3074 10.376C74.5634 9.992 74.926 9.64533 75.3954 9.336C75.8754 9.02667 76.4834 8.872 77.2194 8.872C78.0087 8.872 78.6967 9.05333 79.2834 9.416C79.87 9.77867 80.3234 10.2747 80.6434 10.904C80.974 11.5333 81.1394 12.248 81.1394 13.048C81.1394 13.848 80.974 14.5627 80.6434 15.192C80.3234 15.8107 79.8647 16.3013 79.2674 16.664C78.6807 17.016 77.9927 17.192 77.2034 17.192C76.5527 17.192 75.9714 17.0587 75.4594 16.792C74.958 16.5253 74.574 16.152 74.3074 15.672V20.52H72.9634ZM77.0594 16.024C77.5927 16.024 78.062 15.9013 78.4674 15.656C78.8727 15.4 79.1927 15.048 79.4274 14.6C79.662 14.152 79.7794 13.6293 79.7794 13.032C79.7794 12.4347 79.662 11.912 79.4274 11.464C79.1927 11.016 78.8727 10.6693 78.4674 10.424C78.062 10.168 77.5927 10.04 77.0594 10.04C76.526 10.04 76.0567 10.168 75.6514 10.424C75.246 10.6693 74.926 11.016 74.6914 11.464C74.4567 11.912 74.3394 12.4347 74.3394 13.032C74.3394 13.6293 74.4567 14.152 74.6914 14.6C74.926 15.048 75.246 15.4 75.6514 15.656C76.0567 15.9013 76.526 16.024 77.0594 16.024ZM83.2336 20.52L85.2016 16.232H84.7376L81.5856 9.064H83.0416L85.6656 15.24L88.4496 9.064H89.8416L84.6416 20.52H83.2336ZM94.3963 17C93.6709 17 93.1003 16.824 92.6843 16.472C92.2683 16.12 92.0603 15.4853 92.0603 14.568V10.2H90.6842V9.064H92.0603L92.2363 7.16H93.4043V9.064H95.7403V10.2H93.4043V14.568C93.4043 15.0693 93.5056 15.4107 93.7083 15.592C93.9109 15.7627 94.2683 15.848 94.7803 15.848H95.6123V17H94.3963ZM100.344 17.192C99.4051 17.192 98.6584 16.9093 98.1038 16.344C97.5491 15.768 97.2718 14.888 97.2718 13.704V9.064H98.6158V13.56C98.6158 15.2133 99.2931 16.04 100.648 16.04C101.341 16.04 101.912 15.7947 102.36 15.304C102.818 14.8027 103.048 14.0933 103.048 13.176V9.064H104.392V17H103.176L103.08 15.576C102.834 16.0773 102.466 16.472 101.976 16.76C101.496 17.048 100.952 17.192 100.344 17.192ZM106.604 17V9.064H107.82L107.916 10.216C108.172 9.78933 108.513 9.45867 108.94 9.224C109.367 8.98933 109.847 8.872 110.38 8.872C111.009 8.872 111.548 9 111.996 9.256C112.455 9.512 112.807 9.90133 113.052 10.424C113.329 9.944 113.708 9.56533 114.188 9.288C114.679 9.01067 115.207 8.872 115.772 8.872C116.721 8.872 117.479 9.16 118.044 9.736C118.609 10.3013 118.892 11.176 118.892 12.36V17H117.564V12.504C117.564 11.6827 117.399 11.064 117.068 10.648C116.737 10.232 116.263 10.024 115.644 10.024C115.004 10.024 114.471 10.2747 114.044 10.776C113.628 11.2667 113.42 11.9707 113.42 12.888V17H112.076V12.504C112.076 11.6827 111.911 11.064 111.58 10.648C111.249 10.232 110.775 10.024 110.156 10.024C109.527 10.024 108.999 10.2747 108.572 10.776C108.156 11.2667 107.948 11.9707 107.948 12.888V17H106.604ZM120.917 17V9.064H122.133L122.229 10.216C122.485 9.78933 122.826 9.45867 123.253 9.224C123.679 8.98933 124.159 8.872 124.693 8.872C125.322 8.872 125.861 9 126.309 9.256C126.767 9.512 127.119 9.90133 127.365 10.424C127.642 9.944 128.021 9.56533 128.501 9.288C128.991 9.01067 129.519 8.872 130.085 8.872C131.034 8.872 131.791 9.16 132.357 9.736C132.922 10.3013 133.205 11.176 133.205 12.36V17H131.877V12.504C131.877 11.6827 131.711 11.064 131.381 10.648C131.05 10.232 130.575 10.024 129.957 10.024C129.317 10.024 128.783 10.2747 128.357 10.776C127.941 11.2667 127.733 11.9707 127.733 12.888V17H126.389V12.504C126.389 11.6827 126.223 11.064 125.893 10.648C125.562 10.232 125.087 10.024 124.469 10.024C123.839 10.024 123.311 10.2747 122.885 10.776C122.469 11.2667 122.261 11.9707 122.261 12.888V17H120.917ZM135.859 20.52L137.827 16.232H137.363L134.211 9.064H135.667L138.291 15.24L141.075 9.064H142.467L137.267 20.52H135.859ZM148.756 20.184C147.614 20.184 146.612 19.9653 145.748 19.528C144.894 19.0907 144.228 18.472 143.748 17.672C143.278 16.872 143.044 15.9227 143.044 14.824C143.044 13.6933 143.241 12.6373 143.636 11.656C144.03 10.6747 144.585 9.816 145.3 9.08C146.014 8.344 146.857 7.77333 147.828 7.368C148.798 6.96267 149.865 6.76 151.028 6.76C152.212 6.76 153.241 6.98933 154.116 7.448C154.99 7.896 155.662 8.52533 156.132 9.336C156.612 10.136 156.852 11.0693 156.852 12.136C156.852 12.744 156.777 13.3467 156.628 13.944C156.478 14.5307 156.254 15.064 155.956 15.544C155.668 16.0133 155.31 16.392 154.884 16.68C154.468 16.9573 153.988 17.096 153.444 17.096C152.9 17.096 152.484 16.9573 152.196 16.68C151.918 16.4027 151.764 16.0293 151.732 15.56C151.401 16.04 150.98 16.4187 150.468 16.696C149.966 16.9627 149.433 17.096 148.868 17.096C148.057 17.096 147.422 16.8507 146.964 16.36C146.516 15.8693 146.292 15.208 146.292 14.376C146.292 13.7893 146.382 13.2293 146.564 12.696C146.756 12.152 147.022 11.672 147.364 11.256C147.705 10.8293 148.11 10.4933 148.58 10.248C149.049 10.0027 149.572 9.88 150.148 9.88C151.225 9.88 151.924 10.3227 152.244 11.208L152.452 10.056H153.588L152.788 14.632C152.713 15.0907 152.734 15.464 152.852 15.752C152.98 16.0293 153.241 16.168 153.636 16.168C153.977 16.168 154.281 16.0507 154.548 15.816C154.814 15.5707 155.038 15.2507 155.22 14.856C155.401 14.4507 155.534 14.0187 155.62 13.56C155.716 13.0907 155.764 12.6373 155.764 12.2C155.764 10.8027 155.326 9.704 154.452 8.904C153.588 8.104 152.393 7.704 150.868 7.704C149.897 7.704 149.001 7.88533 148.18 8.248C147.369 8.61067 146.66 9.112 146.052 9.752C145.444 10.392 144.969 11.1333 144.628 11.976C144.297 12.8187 144.132 13.7307 144.132 14.712C144.132 15.672 144.329 16.488 144.724 17.16C145.118 17.832 145.678 18.344 146.404 18.696C147.129 19.048 147.993 19.224 148.996 19.224C149.454 19.224 149.913 19.176 150.372 19.08C150.83 18.9947 151.257 18.8613 151.652 18.68L151.876 19.592C150.916 19.9867 149.876 20.184 148.756 20.184ZM149.268 16.072C149.726 16.072 150.148 15.9493 150.532 15.704C150.916 15.4587 151.23 15.1227 151.476 14.696C151.721 14.2587 151.87 13.7573 151.924 13.192C151.998 12.5627 151.886 12.024 151.588 11.576C151.3 11.128 150.83 10.904 150.18 10.904C149.636 10.904 149.161 11.064 148.756 11.384C148.361 11.6933 148.057 12.0987 147.844 12.6C147.63 13.1013 147.524 13.624 147.524 14.168C147.524 14.744 147.668 15.208 147.956 15.56C148.254 15.9013 148.692 16.072 149.268 16.072ZM159.151 17V9.064H160.367L160.479 10.584C160.724 10.0613 161.098 9.64533 161.599 9.336C162.1 9.02667 162.719 8.872 163.455 8.872V10.28H163.087C162.618 10.28 162.186 10.3653 161.791 10.536C161.396 10.696 161.082 10.9733 160.847 11.368C160.612 11.7627 160.495 12.3067 160.495 13V17H159.151ZM168.235 17.192C167.477 17.192 166.805 17.0213 166.219 16.68C165.632 16.328 165.168 15.8427 164.827 15.224C164.496 14.6053 164.331 13.8747 164.331 13.032C164.331 12.2 164.496 11.4747 164.827 10.856C165.157 10.2267 165.616 9.74133 166.203 9.4C166.8 9.048 167.488 8.872 168.266 8.872C169.035 8.872 169.696 9.048 170.251 9.4C170.816 9.74133 171.248 10.1947 171.547 10.76C171.845 11.3253 171.995 11.9333 171.995 12.584C171.995 12.7013 171.989 12.8187 171.979 12.936C171.979 13.0533 171.979 13.1867 171.979 13.336H165.659C165.691 13.944 165.829 14.4507 166.075 14.856C166.331 15.2507 166.645 15.5493 167.019 15.752C167.403 15.9547 167.808 16.056 168.235 16.056C168.789 16.056 169.253 15.928 169.627 15.672C170 15.416 170.272 15.0693 170.443 14.632H171.771C171.557 15.368 171.147 15.9813 170.539 16.472C169.941 16.952 169.173 17.192 168.235 17.192ZM168.235 10.008C167.595 10.008 167.024 10.2053 166.523 10.6C166.032 10.984 165.749 11.5493 165.674 12.296H170.667C170.635 11.5813 170.389 11.0213 169.931 10.616C169.472 10.2107 168.907 10.008 168.235 10.008ZM176.816 17.192C175.867 17.192 175.077 16.952 174.448 16.472C173.819 15.992 173.451 15.3413 173.344 14.52H174.72C174.805 14.936 175.024 15.2987 175.376 15.608C175.739 15.9067 176.224 16.056 176.832 16.056C177.397 16.056 177.813 15.9387 178.08 15.704C178.347 15.4587 178.48 15.1707 178.48 14.84C178.48 14.36 178.304 14.04 177.952 13.88C177.611 13.72 177.125 13.576 176.496 13.448C176.069 13.3627 175.643 13.24 175.216 13.08C174.789 12.92 174.432 12.696 174.144 12.408C173.856 12.1093 173.712 11.72 173.712 11.24C173.712 10.5467 173.968 9.98133 174.48 9.544C175.003 9.096 175.707 8.872 176.592 8.872C177.435 8.872 178.123 9.08533 178.656 9.512C179.2 9.928 179.515 10.5253 179.6 11.304H178.272C178.219 10.8987 178.043 10.584 177.744 10.36C177.456 10.1253 177.067 10.008 176.576 10.008C176.096 10.008 175.723 10.1093 175.456 10.312C175.2 10.5147 175.072 10.7813 175.072 11.112C175.072 11.432 175.237 11.6827 175.568 11.864C175.909 12.0453 176.368 12.2 176.944 12.328C177.435 12.4347 177.899 12.568 178.336 12.728C178.784 12.8773 179.147 13.1067 179.424 13.416C179.712 13.7147 179.856 14.152 179.856 14.728C179.867 15.4427 179.595 16.0347 179.04 16.504C178.496 16.9627 177.755 17.192 176.816 17.192ZM184.553 17C183.827 17 183.257 16.824 182.841 16.472C182.425 16.12 182.217 15.4853 182.217 14.568V10.2H180.84V9.064H182.217L182.393 7.16H183.561V9.064H185.897V10.2H183.561V14.568C183.561 15.0693 183.662 15.4107 183.865 15.592C184.067 15.7627 184.425 15.848 184.937 15.848H185.769V17H184.553ZM190.244 17.192C189.583 17.192 189.033 17.08 188.596 16.856C188.159 16.632 187.833 16.3333 187.62 15.96C187.407 15.5867 187.3 15.1813 187.3 14.744C187.3 13.9333 187.609 13.3093 188.228 12.872C188.847 12.4347 189.689 12.216 190.756 12.216H192.9V12.12C192.9 11.4267 192.719 10.904 192.356 10.552C191.993 10.1893 191.508 10.008 190.9 10.008C190.377 10.008 189.924 10.1413 189.54 10.408C189.167 10.664 188.932 11.0427 188.836 11.544H187.46C187.513 10.968 187.705 10.4827 188.036 10.088C188.377 9.69333 188.799 9.39467 189.3 9.192C189.801 8.97867 190.335 8.872 190.9 8.872C192.009 8.872 192.841 9.17067 193.396 9.768C193.961 10.3547 194.244 11.1387 194.244 12.12V17H193.044L192.964 15.576C192.74 16.024 192.409 16.408 191.972 16.728C191.545 17.0373 190.969 17.192 190.244 17.192ZM190.452 16.056C190.964 16.056 191.401 15.9227 191.764 15.656C192.137 15.3893 192.42 15.0427 192.612 14.616C192.804 14.1893 192.9 13.7413 192.9 13.272V13.256H190.868C190.079 13.256 189.519 13.3947 189.188 13.672C188.868 13.9387 188.708 14.2747 188.708 14.68C188.708 15.096 188.857 15.432 189.156 15.688C189.465 15.9333 189.897 16.056 190.452 16.056ZM199.156 17.192C198.218 17.192 197.471 16.9093 196.916 16.344C196.362 15.768 196.084 14.888 196.084 13.704V9.064H197.428V13.56C197.428 15.2133 198.106 16.04 199.46 16.04C200.154 16.04 200.724 15.7947 201.172 15.304C201.631 14.8027 201.86 14.0933 201.86 13.176V9.064H203.204V17H201.988L201.892 15.576C201.647 16.0773 201.279 16.472 200.788 16.76C200.308 17.048 199.764 17.192 199.156 17.192ZM205.417 17V9.064H206.633L206.745 10.584C206.99 10.0613 207.363 9.64533 207.865 9.336C208.366 9.02667 208.985 8.872 209.721 8.872V10.28H209.353C208.883 10.28 208.451 10.3653 208.057 10.536C207.662 10.696 207.347 10.9733 207.113 11.368C206.878 11.7627 206.761 12.3067 206.761 13V17H205.417ZM213.869 17.192C213.208 17.192 212.658 17.08 212.221 16.856C211.784 16.632 211.458 16.3333 211.245 15.96C211.032 15.5867 210.925 15.1813 210.925 14.744C210.925 13.9333 211.234 13.3093 211.853 12.872C212.472 12.4347 213.314 12.216 214.381 12.216H216.525V12.12C216.525 11.4267 216.344 10.904 215.981 10.552C215.618 10.1893 215.133 10.008 214.525 10.008C214.002 10.008 213.549 10.1413 213.165 10.408C212.792 10.664 212.557 11.0427 212.461 11.544H211.085C211.138 10.968 211.33 10.4827 211.661 10.088C212.002 9.69333 212.424 9.39467 212.925 9.192C213.426 8.97867 213.96 8.872 214.525 8.872C215.634 8.872 216.466 9.17067 217.021 9.768C217.586 10.3547 217.869 11.1387 217.869 12.12V17H216.669L216.589 15.576C216.365 16.024 216.034 16.408 215.597 16.728C215.17 17.0373 214.594 17.192 213.869 17.192ZM214.077 16.056C214.589 16.056 215.026 15.9227 215.389 15.656C215.762 15.3893 216.045 15.0427 216.237 14.616C216.429 14.1893 216.525 13.7413 216.525 13.272V13.256H214.493C213.704 13.256 213.144 13.3947 212.813 13.672C212.493 13.9387 212.333 14.2747 212.333 14.68C212.333 15.096 212.482 15.432 212.781 15.688C213.09 15.9333 213.522 16.056 214.077 16.056ZM219.885 17V9.064H221.101L221.181 10.488C221.437 9.98667 221.805 9.592 222.285 9.304C222.765 9.016 223.309 8.872 223.917 8.872C224.856 8.872 225.603 9.16 226.157 9.736C226.723 10.3013 227.005 11.176 227.005 12.36V17H225.661V12.504C225.661 10.8507 224.979 10.024 223.613 10.024C222.931 10.024 222.36 10.2747 221.901 10.776C221.453 11.2667 221.229 11.9707 221.229 12.888V17H219.885ZM232.178 17C231.452 17 230.882 16.824 230.466 16.472C230.05 16.12 229.842 15.4853 229.842 14.568V10.2H228.465V9.064H229.842L230.018 7.16H231.186V9.064H233.522V10.2H231.186V14.568C231.186 15.0693 231.287 15.4107 231.49 15.592C231.692 15.7627 232.05 15.848 232.562 15.848H233.394V17H232.178ZM235.693 17.08C235.426 17.08 235.202 16.9947 235.021 16.824C234.85 16.6427 234.765 16.424 234.765 16.168C234.765 15.912 234.85 15.6987 235.021 15.528C235.202 15.3467 235.426 15.256 235.693 15.256C235.949 15.256 236.162 15.3467 236.333 15.528C236.514 15.6987 236.605 15.912 236.605 16.168C236.605 16.424 236.514 16.6427 236.333 16.824C236.162 16.9947 235.949 17.08 235.693 17.08ZM242.002 17.192C241.245 17.192 240.562 17.0213 239.954 16.68C239.357 16.328 238.882 15.8427 238.53 15.224C238.189 14.5947 238.018 13.864 238.018 13.032C238.018 12.2 238.189 11.4747 238.53 10.856C238.882 10.2267 239.357 9.74133 239.954 9.4C240.562 9.048 241.245 8.872 242.002 8.872C242.941 8.872 243.73 9.11733 244.37 9.608C245.021 10.0987 245.431 10.7547 245.602 11.576H244.226C244.119 11.0853 243.858 10.7067 243.442 10.44C243.026 10.1627 242.541 10.024 241.986 10.024C241.538 10.024 241.117 10.136 240.722 10.36C240.327 10.584 240.007 10.92 239.762 11.368C239.517 11.816 239.394 12.3707 239.394 13.032C239.394 13.6933 239.517 14.248 239.762 14.696C240.007 15.144 240.327 15.4853 240.722 15.72C241.117 15.944 241.538 16.056 241.986 16.056C242.541 16.056 243.026 15.9227 243.442 15.656C243.858 15.3787 244.119 14.9893 244.226 14.488H245.602C245.442 15.288 245.037 15.9387 244.386 16.44C243.735 16.9413 242.941 17.192 242.002 17.192ZM251.095 17.192C250.348 17.192 249.676 17.0213 249.079 16.68C248.482 16.3387 248.007 15.8587 247.655 15.24C247.314 14.6107 247.143 13.8747 247.143 13.032C247.143 12.1893 247.319 11.4587 247.671 10.84C248.023 10.2107 248.498 9.72533 249.095 9.384C249.703 9.04267 250.38 8.872 251.127 8.872C251.874 8.872 252.546 9.04267 253.143 9.384C253.74 9.72533 254.21 10.2107 254.551 10.84C254.903 11.4587 255.079 12.1893 255.079 13.032C255.079 13.8747 254.903 14.6107 254.551 15.24C254.199 15.8587 253.719 16.3387 253.111 16.68C252.514 17.0213 251.842 17.192 251.095 17.192ZM251.095 16.04C251.554 16.04 251.98 15.928 252.375 15.704C252.77 15.48 253.09 15.144 253.335 14.696C253.58 14.248 253.703 13.6933 253.703 13.032C253.703 12.3707 253.58 11.816 253.335 11.368C253.1 10.92 252.786 10.584 252.391 10.36C251.996 10.136 251.575 10.024 251.127 10.024C250.668 10.024 250.242 10.136 249.847 10.36C249.452 10.584 249.132 10.92 248.887 11.368C248.642 11.816 248.519 12.3707 248.519 13.032C248.519 13.6933 248.642 14.248 248.887 14.696C249.132 15.144 249.447 15.48 249.831 15.704C250.226 15.928 250.647 16.04 251.095 16.04ZM256.948 17V9.064H258.164L258.26 10.216C258.516 9.78933 258.857 9.45867 259.284 9.224C259.71 8.98933 260.19 8.872 260.724 8.872C261.353 8.872 261.892 9 262.34 9.256C262.798 9.512 263.15 9.90133 263.396 10.424C263.673 9.944 264.052 9.56533 264.532 9.288C265.022 9.01067 265.55 8.872 266.116 8.872C267.065 8.872 267.822 9.16 268.388 9.736C268.953 10.3013 269.236 11.176 269.236 12.36V17H267.908V12.504C267.908 11.6827 267.742 11.064 267.412 10.648C267.081 10.232 266.606 10.024 265.988 10.024C265.348 10.024 264.814 10.2747 264.388 10.776C263.972 11.2667 263.764 11.9707 263.764 12.888V17H262.42V12.504C262.42 11.6827 262.254 11.064 261.924 10.648C261.593 10.232 261.118 10.024 260.5 10.024C259.87 10.024 259.342 10.2747 258.916 10.776C258.5 11.2667 258.292 11.9707 258.292 12.888V17H256.948Z" fill="#F9F9F7"/>
</svg>
