<svg width="311" height="48" viewBox="0 0 311 48" fill="none" xmlns="http://www.w3.org/2000/svg">
<path d="M17.6569 16.6569C16.7202 17.5935 14.7616 19.5521 13.4138 20.8999C12.6327 21.681 11.3677 21.6814 10.5866 20.9003C9.26234 19.576 7.34159 17.6553 6.34315 16.6569C3.21895 13.5327 3.21895 8.46734 6.34315 5.34315C9.46734 2.21895 14.5327 2.21895 17.6569 5.34315C20.781 8.46734 20.781 13.5327 17.6569 16.6569Z" stroke="white" stroke-width="2" stroke-linecap="round" stroke-linejoin="round"/>
<path d="M15 11C15 12.6569 13.6569 14 12 14C10.3431 14 9 12.6569 9 11C9 9.34315 10.3431 8 12 8C13.6569 8 15 9.34315 15 11Z" stroke="white" stroke-width="2" stroke-linecap="round" stroke-linejoin="round"/>
<path d="M48.88 17.192C48.144 17.192 47.4827 17.0587 46.896 16.792C46.3093 16.5147 45.8453 16.136 45.504 15.656C45.1733 15.1653 45.008 14.6 45.008 13.96C45.008 13.2773 45.2053 12.664 45.6 12.12C46.0053 11.576 46.5387 11.2133 47.2 11.032C46.592 10.8293 46.1227 10.504 45.792 10.056C45.4613 9.608 45.296 9.11733 45.296 8.584C45.296 8.04 45.44 7.544 45.728 7.096C46.016 6.63733 46.4267 6.27467 46.96 6.008C47.4933 5.74133 48.1333 5.608 48.88 5.608C49.6267 5.608 50.2667 5.74133 50.8 6.008C51.3333 6.27467 51.744 6.63733 52.032 7.096C52.32 7.544 52.464 8.04 52.464 8.584C52.464 9.10667 52.2987 9.59733 51.968 10.056C51.6373 10.504 51.168 10.8293 50.56 11.032C51.2213 11.2133 51.7493 11.576 52.144 12.12C52.5493 12.664 52.752 13.2773 52.752 13.96C52.752 14.6 52.5813 15.1653 52.24 15.656C51.9093 16.136 51.4507 16.5147 50.864 16.792C50.2773 17.0587 49.616 17.192 48.88 17.192ZM48.88 10.552C49.5627 10.552 50.1013 10.3813 50.496 10.04C50.9013 9.688 51.104 9.22933 51.104 8.664C51.104 8.03467 50.9067 7.56 50.512 7.24C50.1173 6.92 49.5733 6.76 48.88 6.76C48.1867 6.76 47.6427 6.92 47.248 7.24C46.864 7.56 46.672 8.03467 46.672 8.664C46.672 9.22933 46.8693 9.688 47.264 10.04C47.6587 10.3813 48.1973 10.552 48.88 10.552ZM48.88 16.008C49.7227 16.008 50.352 15.816 50.768 15.432C51.1947 15.0373 51.408 14.52 51.408 13.88C51.408 13.1547 51.1787 12.6053 50.72 12.232C50.2613 11.8587 49.648 11.672 48.88 11.672C48.112 11.672 47.4987 11.8587 47.04 12.232C46.5813 12.6053 46.352 13.1547 46.352 13.88C46.352 14.52 46.56 15.0373 46.976 15.432C47.4027 15.816 48.0373 16.008 48.88 16.008ZM58.4376 17.192C57.723 17.192 57.0776 17.064 56.5016 16.808C55.9256 16.5413 55.4616 16.1467 55.1096 15.624C54.7683 15.1013 54.587 14.4507 54.5656 13.672H55.9256C55.9363 14.312 56.1603 14.8667 56.5976 15.336C57.035 15.7947 57.6483 16.024 58.4376 16.024C59.227 16.024 59.819 15.8053 60.2136 15.368C60.619 14.9307 60.8216 14.4027 60.8216 13.784C60.8216 13.2613 60.6936 12.8347 60.4376 12.504C60.1923 12.1733 59.8563 11.928 59.4296 11.768C59.0136 11.608 58.555 11.528 58.0536 11.528H57.2216V10.392H58.0536C58.779 10.392 59.3443 10.2267 59.7496 9.896C60.1656 9.56533 60.3736 9.10133 60.3736 8.504C60.3736 8.00267 60.2083 7.592 59.8776 7.272C59.5576 6.94133 59.0776 6.776 58.4376 6.776C57.819 6.776 57.323 6.96267 56.9496 7.336C56.5763 7.69867 56.3683 8.15733 56.3256 8.712H54.9656C54.9976 8.104 55.1576 7.56533 55.4456 7.096C55.7443 6.62667 56.1496 6.264 56.6616 6.008C57.1736 5.74133 57.7656 5.608 58.4376 5.608C59.163 5.608 59.7656 5.736 60.2456 5.992C60.7363 6.248 61.1043 6.58933 61.3496 7.016C61.6056 7.44267 61.7336 7.912 61.7336 8.424C61.7336 8.98933 61.579 9.50667 61.2696 9.976C60.9603 10.4347 60.4963 10.744 59.8776 10.904C60.539 11.0427 61.0883 11.3573 61.5256 11.848C61.963 12.3387 62.1816 12.984 62.1816 13.784C62.1816 14.4027 62.0376 14.9733 61.7496 15.496C61.4723 16.008 61.0563 16.4187 60.5016 16.728C59.947 17.0373 59.259 17.192 58.4376 17.192ZM65.0182 17L69.4663 6.952H63.3223V5.8H70.8423V6.808L66.4423 17H65.0182ZM79.1599 17.016L76.0879 5.8H77.5279L79.9439 15.416L82.6959 5.8H84.1839L86.8559 15.416L89.3039 5.8H90.7439L87.6079 17H86.0719L83.3999 7.752L80.6639 17L79.1599 17.016ZM91.5836 17.08C91.317 17.08 91.093 16.9947 90.9116 16.824C90.741 16.6427 90.6556 16.424 90.6556 16.168C90.6556 15.912 90.741 15.6987 90.9116 15.528C91.093 15.3467 91.317 15.256 91.5836 15.256C91.8396 15.256 92.053 15.3467 92.2236 15.528C92.405 15.6987 92.4956 15.912 92.4956 16.168C92.4956 16.424 92.405 16.6427 92.2236 16.824C92.053 16.9947 91.8396 17.08 91.5836 17.08ZM98.559 17V5.8H100.127L104.159 13.608L108.159 5.8H109.743V17H108.399V8.2L104.655 15.4H103.647L99.903 8.216V17H98.559ZM114.666 17.192C114.005 17.192 113.455 17.08 113.018 16.856C112.581 16.632 112.255 16.3333 112.042 15.96C111.829 15.5867 111.722 15.1813 111.722 14.744C111.722 13.9333 112.031 13.3093 112.65 12.872C113.269 12.4347 114.111 12.216 115.178 12.216H117.322V12.12C117.322 11.4267 117.141 10.904 116.778 10.552C116.415 10.1893 115.93 10.008 115.322 10.008C114.799 10.008 114.346 10.1413 113.962 10.408C113.589 10.664 113.354 11.0427 113.258 11.544H111.882C111.935 10.968 112.127 10.4827 112.458 10.088C112.799 9.69333 113.221 9.39467 113.722 9.192C114.223 8.97867 114.757 8.872 115.322 8.872C116.431 8.872 117.263 9.17067 117.818 9.768C118.383 10.3547 118.666 11.1387 118.666 12.12V17H117.466L117.386 15.576C117.162 16.024 116.831 16.408 116.394 16.728C115.967 17.0373 115.391 17.192 114.666 17.192ZM114.874 16.056C115.386 16.056 115.823 15.9227 116.186 15.656C116.559 15.3893 116.842 15.0427 117.034 14.616C117.226 14.1893 117.322 13.7413 117.322 13.272V13.256H115.29C114.501 13.256 113.941 13.3947 113.61 13.672C113.29 13.9387 113.13 14.2747 113.13 14.68C113.13 15.096 113.279 15.432 113.578 15.688C113.887 15.9333 114.319 16.056 114.874 16.056ZM120.682 17V9.064H121.898L122.01 10.584C122.255 10.0613 122.629 9.64533 123.13 9.336C123.631 9.02667 124.25 8.872 124.986 8.872V10.28H124.618C124.149 10.28 123.717 10.3653 123.322 10.536C122.927 10.696 122.613 10.9733 122.378 11.368C122.143 11.7627 122.026 12.3067 122.026 13V17H120.682ZM129.535 17.192C128.585 17.192 127.796 16.952 127.167 16.472C126.537 15.992 126.169 15.3413 126.063 14.52H127.439C127.524 14.936 127.743 15.2987 128.095 15.608C128.457 15.9067 128.943 16.056 129.551 16.056C130.116 16.056 130.532 15.9387 130.799 15.704C131.065 15.4587 131.199 15.1707 131.199 14.84C131.199 14.36 131.023 14.04 130.671 13.88C130.329 13.72 129.844 13.576 129.215 13.448C128.788 13.3627 128.361 13.24 127.935 13.08C127.508 12.92 127.151 12.696 126.863 12.408C126.575 12.1093 126.431 11.72 126.431 11.24C126.431 10.5467 126.687 9.98133 127.199 9.544C127.721 9.096 128.425 8.872 129.311 8.872C130.153 8.872 130.841 9.08533 131.375 9.512C131.919 9.928 132.233 10.5253 132.319 11.304H130.991C130.937 10.8987 130.761 10.584 130.463 10.36C130.175 10.1253 129.785 10.008 129.295 10.008C128.815 10.008 128.441 10.1093 128.175 10.312C127.919 10.5147 127.791 10.7813 127.791 11.112C127.791 11.432 127.956 11.6827 128.287 11.864C128.628 12.0453 129.087 12.2 129.663 12.328C130.153 12.4347 130.617 12.568 131.055 12.728C131.503 12.8773 131.865 13.1067 132.143 13.416C132.431 13.7147 132.575 14.152 132.575 14.728C132.585 15.4427 132.313 16.0347 131.759 16.504C131.215 16.9627 130.473 17.192 129.535 17.192ZM134.495 17V5.48H135.839V10.424C136.105 9.93333 136.484 9.55467 136.975 9.288C137.465 9.01067 137.999 8.872 138.575 8.872C139.492 8.872 140.228 9.16 140.783 9.736C141.337 10.3013 141.615 11.176 141.615 12.36V17H140.287V12.504C140.287 10.8507 139.62 10.024 138.287 10.024C137.593 10.024 137.012 10.2747 136.543 10.776C136.073 11.2667 135.839 11.9707 135.839 12.888V17H134.495ZM146.291 17.192C145.63 17.192 145.08 17.08 144.643 16.856C144.206 16.632 143.88 16.3333 143.667 15.96C143.454 15.5867 143.347 15.1813 143.347 14.744C143.347 13.9333 143.656 13.3093 144.275 12.872C144.894 12.4347 145.736 12.216 146.803 12.216H148.947V12.12C148.947 11.4267 148.766 10.904 148.403 10.552C148.04 10.1893 147.555 10.008 146.947 10.008C146.424 10.008 145.971 10.1413 145.587 10.408C145.214 10.664 144.979 11.0427 144.883 11.544H143.507C143.56 10.968 143.752 10.4827 144.083 10.088C144.424 9.69333 144.846 9.39467 145.347 9.192C145.848 8.97867 146.382 8.872 146.947 8.872C148.056 8.872 148.888 9.17067 149.443 9.768C150.008 10.3547 150.291 11.1387 150.291 12.12V17H149.091L149.011 15.576C148.787 16.024 148.456 16.408 148.019 16.728C147.592 17.0373 147.016 17.192 146.291 17.192ZM146.499 16.056C147.011 16.056 147.448 15.9227 147.811 15.656C148.184 15.3893 148.467 15.0427 148.659 14.616C148.851 14.1893 148.947 13.7413 148.947 13.272V13.256H146.915C146.126 13.256 145.566 13.3947 145.235 13.672C144.915 13.9387 144.755 14.2747 144.755 14.68C144.755 15.096 144.904 15.432 145.203 15.688C145.512 15.9333 145.944 16.056 146.499 16.056ZM152.307 17V5.48H153.651V17H152.307ZM155.854 17V5.48H157.198V17H155.854ZM163.715 17V5.8H165.059V15.928H170.275V17H163.715ZM174.682 17.192C174.02 17.192 173.471 17.08 173.034 16.856C172.596 16.632 172.271 16.3333 172.058 15.96C171.844 15.5867 171.738 15.1813 171.738 14.744C171.738 13.9333 172.047 13.3093 172.666 12.872C173.284 12.4347 174.127 12.216 175.194 12.216H177.338V12.12C177.338 11.4267 177.156 10.904 176.794 10.552C176.431 10.1893 175.946 10.008 175.338 10.008C174.815 10.008 174.362 10.1413 173.978 10.408C173.604 10.664 173.37 11.0427 173.274 11.544H171.898C171.951 10.968 172.143 10.4827 172.474 10.088C172.815 9.69333 173.236 9.39467 173.738 9.192C174.239 8.97867 174.772 8.872 175.338 8.872C176.447 8.872 177.279 9.17067 177.834 9.768C178.399 10.3547 178.682 11.1387 178.682 12.12V17H177.482L177.402 15.576C177.178 16.024 176.847 16.408 176.41 16.728C175.983 17.0373 175.407 17.192 174.682 17.192ZM174.89 16.056C175.402 16.056 175.839 15.9227 176.202 15.656C176.575 15.3893 176.858 15.0427 177.05 14.616C177.242 14.1893 177.338 13.7413 177.338 13.272V13.256H175.306C174.516 13.256 173.956 13.3947 173.626 13.672C173.306 13.9387 173.146 14.2747 173.146 14.68C173.146 15.096 173.295 15.432 173.594 15.688C173.903 15.9333 174.335 16.056 174.89 16.056ZM180.698 17V9.064H181.914L181.994 10.488C182.25 9.98667 182.618 9.592 183.098 9.304C183.578 9.016 184.122 8.872 184.73 8.872C185.668 8.872 186.415 9.16 186.97 9.736C187.535 10.3013 187.818 11.176 187.818 12.36V17H186.474V12.504C186.474 10.8507 185.791 10.024 184.426 10.024C183.743 10.024 183.172 10.2747 182.714 10.776C182.266 11.2667 182.042 11.9707 182.042 12.888V17H180.698ZM193.422 17.192C192.665 17.192 191.993 17.0213 191.406 16.68C190.819 16.328 190.355 15.8427 190.014 15.224C189.683 14.6053 189.518 13.8747 189.518 13.032C189.518 12.2 189.683 11.4747 190.014 10.856C190.345 10.2267 190.803 9.74133 191.39 9.4C191.987 9.048 192.675 8.872 193.454 8.872C194.222 8.872 194.883 9.048 195.438 9.4C196.003 9.74133 196.435 10.1947 196.734 10.76C197.033 11.3253 197.182 11.9333 197.182 12.584C197.182 12.7013 197.177 12.8187 197.166 12.936C197.166 13.0533 197.166 13.1867 197.166 13.336H190.846C190.878 13.944 191.017 14.4507 191.262 14.856C191.518 15.2507 191.833 15.5493 192.206 15.752C192.59 15.9547 192.995 16.056 193.422 16.056C193.977 16.056 194.441 15.928 194.814 15.672C195.187 15.416 195.459 15.0693 195.63 14.632H196.958C196.745 15.368 196.334 15.9813 195.726 16.472C195.129 16.952 194.361 17.192 193.422 17.192ZM193.422 10.008C192.782 10.008 192.211 10.2053 191.71 10.6C191.219 10.984 190.937 11.5493 190.862 12.296H195.854C195.822 11.5813 195.577 11.0213 195.118 10.616C194.659 10.2107 194.094 10.008 193.422 10.008ZM203.278 17V5.8H204.846L208.878 13.608L212.878 5.8H214.462V17H213.118V8.2L209.374 15.4H208.366L204.622 8.216V17H203.278ZM219.385 17.192C218.723 17.192 218.174 17.08 217.737 16.856C217.299 16.632 216.974 16.3333 216.761 15.96C216.547 15.5867 216.441 15.1813 216.441 14.744C216.441 13.9333 216.75 13.3093 217.369 12.872C217.987 12.4347 218.83 12.216 219.897 12.216H222.041V12.12C222.041 11.4267 221.859 10.904 221.497 10.552C221.134 10.1893 220.649 10.008 220.041 10.008C219.518 10.008 219.065 10.1413 218.681 10.408C218.307 10.664 218.073 11.0427 217.977 11.544H216.601C216.654 10.968 216.846 10.4827 217.177 10.088C217.518 9.69333 217.939 9.39467 218.441 9.192C218.942 8.97867 219.475 8.872 220.041 8.872C221.15 8.872 221.982 9.17067 222.537 9.768C223.102 10.3547 223.385 11.1387 223.385 12.12V17H222.185L222.105 15.576C221.881 16.024 221.55 16.408 221.113 16.728C220.686 17.0373 220.11 17.192 219.385 17.192ZM219.593 16.056C220.105 16.056 220.542 15.9227 220.905 15.656C221.278 15.3893 221.561 15.0427 221.753 14.616C221.945 14.1893 222.041 13.7413 222.041 13.272V13.256H220.009C219.219 13.256 218.659 13.3947 218.329 13.672C218.009 13.9387 217.849 14.2747 217.849 14.68C217.849 15.096 217.998 15.432 218.297 15.688C218.606 15.9333 219.038 16.056 219.593 16.056ZM225.401 17V9.064H226.617L226.729 10.584C226.974 10.0613 227.348 9.64533 227.849 9.336C228.35 9.02667 228.969 8.872 229.705 8.872V10.28H229.337C228.868 10.28 228.436 10.3653 228.041 10.536C227.646 10.696 227.332 10.9733 227.097 11.368C226.862 11.7627 226.745 12.3067 226.745 13V17H225.401ZM234.253 17.192C233.304 17.192 232.515 16.952 231.885 16.472C231.256 15.992 230.888 15.3413 230.781 14.52H232.157C232.243 14.936 232.461 15.2987 232.813 15.608C233.176 15.9067 233.661 16.056 234.269 16.056C234.835 16.056 235.251 15.9387 235.517 15.704C235.784 15.4587 235.917 15.1707 235.917 14.84C235.917 14.36 235.741 14.04 235.389 13.88C235.048 13.72 234.563 13.576 233.933 13.448C233.507 13.3627 233.08 13.24 232.653 13.08C232.227 12.92 231.869 12.696 231.581 12.408C231.293 12.1093 231.149 11.72 231.149 11.24C231.149 10.5467 231.405 9.98133 231.917 9.544C232.44 9.096 233.144 8.872 234.029 8.872C234.872 8.872 235.56 9.08533 236.093 9.512C236.637 9.928 236.952 10.5253 237.037 11.304H235.709C235.656 10.8987 235.48 10.584 235.181 10.36C234.893 10.1253 234.504 10.008 234.013 10.008C233.533 10.008 233.16 10.1093 232.893 10.312C232.637 10.5147 232.509 10.7813 232.509 11.112C232.509 11.432 232.675 11.6827 233.005 11.864C233.347 12.0453 233.805 12.2 234.381 12.328C234.872 12.4347 235.336 12.568 235.773 12.728C236.221 12.8773 236.584 13.1067 236.861 13.416C237.149 13.7147 237.293 14.152 237.293 14.728C237.304 15.4427 237.032 16.0347 236.477 16.504C235.933 16.9627 235.192 17.192 234.253 17.192ZM239.213 17V5.48H240.557V10.424C240.824 9.93333 241.203 9.55467 241.693 9.288C242.184 9.01067 242.717 8.872 243.293 8.872C244.211 8.872 244.947 9.16 245.501 9.736C246.056 10.3013 246.333 11.176 246.333 12.36V17H245.005V12.504C245.005 10.8507 244.339 10.024 243.005 10.024C242.312 10.024 241.731 10.2747 241.261 10.776C240.792 11.2667 240.557 11.9707 240.557 12.888V17H239.213ZM251.01 17.192C250.348 17.192 249.799 17.08 249.362 16.856C248.924 16.632 248.599 16.3333 248.386 15.96C248.172 15.5867 248.066 15.1813 248.066 14.744C248.066 13.9333 248.375 13.3093 248.994 12.872C249.612 12.4347 250.455 12.216 251.522 12.216H253.666V12.12C253.666 11.4267 253.484 10.904 253.122 10.552C252.759 10.1893 252.274 10.008 251.666 10.008C251.143 10.008 250.69 10.1413 250.306 10.408C249.932 10.664 249.698 11.0427 249.602 11.544H248.226C248.279 10.968 248.471 10.4827 248.802 10.088C249.143 9.69333 249.564 9.39467 250.066 9.192C250.567 8.97867 251.1 8.872 251.666 8.872C252.775 8.872 253.607 9.17067 254.162 9.768C254.727 10.3547 255.01 11.1387 255.01 12.12V17H253.81L253.73 15.576C253.506 16.024 253.175 16.408 252.738 16.728C252.311 17.0373 251.735 17.192 251.01 17.192ZM251.218 16.056C251.73 16.056 252.167 15.9227 252.53 15.656C252.903 15.3893 253.186 15.0427 253.378 14.616C253.57 14.1893 253.666 13.7413 253.666 13.272V13.256H251.634C250.844 13.256 250.284 13.3947 249.954 13.672C249.634 13.9387 249.474 14.2747 249.474 14.68C249.474 15.096 249.623 15.432 249.922 15.688C250.231 15.9333 250.663 16.056 251.218 16.056ZM257.026 17V5.48H258.37V17H257.026ZM260.573 17V5.48H261.917V17H260.573ZM267.256 17C266.53 17 265.96 16.824 265.544 16.472C265.128 16.12 264.92 15.4853 264.92 14.568V10.2H263.544V9.064H264.92L265.096 7.16H266.264V9.064H268.6V10.2H266.264V14.568C266.264 15.0693 266.365 15.4107 266.568 15.592C266.77 15.7627 267.128 15.848 267.64 15.848H268.472V17H267.256ZM273.704 17.192C272.958 17.192 272.286 17.0213 271.688 16.68C271.091 16.3387 270.616 15.8587 270.264 15.24C269.923 14.6107 269.752 13.8747 269.752 13.032C269.752 12.1893 269.928 11.4587 270.28 10.84C270.632 10.2107 271.107 9.72533 271.704 9.384C272.312 9.04267 272.99 8.872 273.736 8.872C274.483 8.872 275.155 9.04267 275.752 9.384C276.35 9.72533 276.819 10.2107 277.16 10.84C277.512 11.4587 277.688 12.1893 277.688 13.032C277.688 13.8747 277.512 14.6107 277.16 15.24C276.808 15.8587 276.328 16.3387 275.72 16.68C275.123 17.0213 274.451 17.192 273.704 17.192ZM273.704 16.04C274.163 16.04 274.59 15.928 274.984 15.704C275.379 15.48 275.699 15.144 275.944 14.696C276.19 14.248 276.312 13.6933 276.312 13.032C276.312 12.3707 276.19 11.816 275.944 11.368C275.71 10.92 275.395 10.584 275 10.36C274.606 10.136 274.184 10.024 273.736 10.024C273.278 10.024 272.851 10.136 272.456 10.36C272.062 10.584 271.742 10.92 271.496 11.368C271.251 11.816 271.128 12.3707 271.128 13.032C271.128 13.6933 271.251 14.248 271.496 14.696C271.742 15.144 272.056 15.48 272.44 15.704C272.835 15.928 273.256 16.04 273.704 16.04ZM280.86 17L278.54 9.064H279.884L281.564 15.288L283.42 9.064H284.94L286.812 15.288L288.476 9.064H289.836L287.516 17H286.14L284.188 10.456L282.236 17H280.86ZM291.323 17V9.064H292.539L292.619 10.488C292.875 9.98667 293.243 9.592 293.723 9.304C294.203 9.016 294.747 8.872 295.355 8.872C296.293 8.872 297.04 9.16 297.595 9.736C298.16 10.3013 298.443 11.176 298.443 12.36V17H297.099V12.504C297.099 10.8507 296.416 10.024 295.051 10.024C294.368 10.024 293.797 10.2747 293.339 10.776C292.891 11.2667 292.667 11.9707 292.667 12.888V17H291.323ZM299.407 18.904L300.335 15.368H301.727L300.335 18.904H299.407ZM45.184 41V29.8H46.528V41H45.184ZM48.1988 41L52.3268 29.8H53.7508L57.8628 41H56.4388L55.4148 38.12H50.6468L49.6068 41H48.1988ZM51.0468 37.032H55.0148L53.0308 31.496L51.0468 37.032ZM67.5701 41.192C66.8021 41.192 66.1355 41.0533 65.5701 40.776C65.0048 40.4987 64.5515 40.12 64.2101 39.64C63.8795 39.1493 63.6768 38.5947 63.6021 37.976H64.9141C65.0421 38.5947 65.3408 39.096 65.8101 39.48C66.2795 39.8533 66.8715 40.04 67.5861 40.04C68.1195 40.04 68.5781 39.9173 68.9621 39.672C69.3461 39.416 69.6395 39.0747 69.8421 38.648C70.0555 38.2213 70.1621 37.7467 70.1621 37.224C70.1621 36.392 69.9275 35.72 69.4581 35.208C68.9888 34.696 68.3808 34.44 67.6341 34.44C67.0155 34.44 66.4875 34.5787 66.0501 34.856C65.6128 35.1333 65.2928 35.496 65.0901 35.944H63.8101L64.7701 29.8H70.6421V30.968H65.8101L65.1541 34.376C65.4101 34.0667 65.7621 33.8107 66.2101 33.608C66.6688 33.4053 67.1915 33.304 67.7781 33.304C68.5141 33.304 69.1541 33.4747 69.6981 33.816C70.2528 34.1573 70.6848 34.6213 70.9941 35.208C71.3035 35.7947 71.4581 36.4613 71.4581 37.208C71.4581 37.9227 71.3035 38.584 70.9941 39.192C70.6955 39.8 70.2528 40.2853 69.6661 40.648C69.0901 41.0107 68.3915 41.192 67.5701 41.192ZM77.927 41.192C76.935 41.192 76.0763 40.952 75.351 40.472C74.6363 39.9813 74.087 39.304 73.703 38.44C73.319 37.5653 73.127 36.552 73.127 35.4C73.127 34.248 73.319 33.24 73.703 32.376C74.087 31.5013 74.6363 30.824 75.351 30.344C76.0763 29.8533 76.935 29.608 77.927 29.608C78.919 29.608 79.7723 29.8533 80.487 30.344C81.2017 30.824 81.751 31.5013 82.135 32.376C82.519 33.24 82.711 34.248 82.711 35.4C82.711 36.552 82.519 37.5653 82.135 38.44C81.751 39.304 81.2017 39.9813 80.487 40.472C79.7723 40.952 78.919 41.192 77.927 41.192ZM77.927 40.008C78.5777 40.008 79.159 39.8267 79.671 39.464C80.1937 39.0907 80.599 38.5627 80.887 37.88C81.1857 37.1867 81.335 36.36 81.335 35.4C81.335 34.44 81.1857 33.6187 80.887 32.936C80.599 32.2533 80.1937 31.7307 79.671 31.368C79.159 30.9947 78.5777 30.808 77.927 30.808C77.2657 30.808 76.679 30.9947 76.167 31.368C75.655 31.7307 75.2497 32.2533 74.951 32.936C74.6523 33.6187 74.503 34.44 74.503 35.4C74.503 36.36 74.6523 37.1867 74.951 37.88C75.2497 38.5627 75.655 39.0907 76.167 39.464C76.679 39.8267 77.2657 40.008 77.927 40.008ZM85.7568 41V31.304L83.9488 31.704V30.776L86.2048 29.8H87.1168V41H85.7568ZM93.2889 41.192C92.5209 41.192 91.8542 41.0533 91.2889 40.776C90.7235 40.4987 90.2702 40.12 89.9289 39.64C89.5982 39.1493 89.3955 38.5947 89.3209 37.976H90.6329C90.7609 38.5947 91.0595 39.096 91.5289 39.48C91.9982 39.8533 92.5902 40.04 93.3049 40.04C93.8382 40.04 94.2969 39.9173 94.6809 39.672C95.0649 39.416 95.3582 39.0747 95.5609 38.648C95.7742 38.2213 95.8809 37.7467 95.8809 37.224C95.8809 36.392 95.6462 35.72 95.1769 35.208C94.7075 34.696 94.0995 34.44 93.3529 34.44C92.7342 34.44 92.2062 34.5787 91.7689 34.856C91.3315 35.1333 91.0115 35.496 90.8089 35.944H89.5289L90.4889 29.8H96.3609V30.968H91.5289L90.8729 34.376C91.1289 34.0667 91.4809 33.8107 91.9289 33.608C92.3875 33.4053 92.9102 33.304 93.4969 33.304C94.2329 33.304 94.8729 33.4747 95.4169 33.816C95.9715 34.1573 96.4035 34.6213 96.7129 35.208C97.0222 35.7947 97.1769 36.4613 97.1769 37.208C97.1769 37.9227 97.0222 38.584 96.7129 39.192C96.4142 39.8 95.9715 40.2853 95.3849 40.648C94.8089 41.0107 94.1102 41.192 93.2889 41.192ZM102.974 41.192C102.238 41.192 101.576 41.0587 100.99 40.792C100.403 40.5147 99.9391 40.136 99.5978 39.656C99.2671 39.1653 99.1018 38.6 99.1018 37.96C99.1018 37.2773 99.2991 36.664 99.6938 36.12C100.099 35.576 100.632 35.2133 101.294 35.032C100.686 34.8293 100.216 34.504 99.8858 34.056C99.5551 33.608 99.3898 33.1173 99.3898 32.584C99.3898 32.04 99.5338 31.544 99.8218 31.096C100.11 30.6373 100.52 30.2747 101.054 30.008C101.587 29.7413 102.227 29.608 102.974 29.608C103.72 29.608 104.36 29.7413 104.894 30.008C105.427 30.2747 105.838 30.6373 106.126 31.096C106.414 31.544 106.558 32.04 106.558 32.584C106.558 33.1067 106.392 33.5973 106.062 34.056C105.731 34.504 105.262 34.8293 104.654 35.032C105.315 35.2133 105.843 35.576 106.238 36.12C106.643 36.664 106.846 37.2773 106.846 37.96C106.846 38.6 106.675 39.1653 106.334 39.656C106.003 40.136 105.544 40.5147 104.958 40.792C104.371 41.0587 103.71 41.192 102.974 41.192ZM102.974 34.552C103.656 34.552 104.195 34.3813 104.59 34.04C104.995 33.688 105.198 33.2293 105.198 32.664C105.198 32.0347 105 31.56 104.606 31.24C104.211 30.92 103.667 30.76 102.974 30.76C102.28 30.76 101.736 30.92 101.342 31.24C100.958 31.56 100.766 32.0347 100.766 32.664C100.766 33.2293 100.963 33.688 101.358 34.04C101.752 34.3813 102.291 34.552 102.974 34.552ZM102.974 40.008C103.816 40.008 104.446 39.816 104.862 39.432C105.288 39.0373 105.502 38.52 105.502 37.88C105.502 37.1547 105.272 36.6053 104.814 36.232C104.355 35.8587 103.742 35.672 102.974 35.672C102.206 35.672 101.592 35.8587 101.134 36.232C100.675 36.6053 100.446 37.1547 100.446 37.88C100.446 38.52 100.654 39.0373 101.07 39.432C101.496 39.816 102.131 40.008 102.974 40.008ZM107.891 42.904L108.819 39.368H110.211L108.819 42.904H107.891ZM116.122 41V29.8H117.466V39.928H122.682V41H116.122ZM127.72 41.192C126.973 41.192 126.301 41.0213 125.704 40.68C125.107 40.3387 124.632 39.8587 124.28 39.24C123.939 38.6107 123.768 37.8747 123.768 37.032C123.768 36.1893 123.944 35.4587 124.296 34.84C124.648 34.2107 125.123 33.7253 125.72 33.384C126.328 33.0427 127.005 32.872 127.752 32.872C128.499 32.872 129.171 33.0427 129.768 33.384C130.365 33.7253 130.835 34.2107 131.176 34.84C131.528 35.4587 131.704 36.1893 131.704 37.032C131.704 37.8747 131.528 38.6107 131.176 39.24C130.824 39.8587 130.344 40.3387 129.736 40.68C129.139 41.0213 128.467 41.192 127.72 41.192ZM127.72 40.04C128.179 40.04 128.605 39.928 129 39.704C129.395 39.48 129.715 39.144 129.96 38.696C130.205 38.248 130.328 37.6933 130.328 37.032C130.328 36.3707 130.205 35.816 129.96 35.368C129.725 34.92 129.411 34.584 129.016 34.36C128.621 34.136 128.2 34.024 127.752 34.024C127.293 34.024 126.867 34.136 126.472 34.36C126.077 34.584 125.757 34.92 125.512 35.368C125.267 35.816 125.144 36.3707 125.144 37.032C125.144 37.6933 125.267 38.248 125.512 38.696C125.757 39.144 126.072 39.48 126.456 39.704C126.851 39.928 127.272 40.04 127.72 40.04ZM136.613 41.192C135.663 41.192 134.874 40.952 134.245 40.472C133.615 39.992 133.247 39.3413 133.141 38.52H134.517C134.602 38.936 134.821 39.2987 135.173 39.608C135.535 39.9067 136.021 40.056 136.629 40.056C137.194 40.056 137.61 39.9387 137.877 39.704C138.143 39.4587 138.277 39.1707 138.277 38.84C138.277 38.36 138.101 38.04 137.749 37.88C137.407 37.72 136.922 37.576 136.293 37.448C135.866 37.3627 135.439 37.24 135.013 37.08C134.586 36.92 134.229 36.696 133.941 36.408C133.653 36.1093 133.509 35.72 133.509 35.24C133.509 34.5467 133.765 33.9813 134.277 33.544C134.799 33.096 135.503 32.872 136.389 32.872C137.231 32.872 137.919 33.0853 138.453 33.512C138.997 33.928 139.311 34.5253 139.397 35.304H138.069C138.015 34.8987 137.839 34.584 137.541 34.36C137.253 34.1253 136.863 34.008 136.373 34.008C135.893 34.008 135.519 34.1093 135.253 34.312C134.997 34.5147 134.869 34.7813 134.869 35.112C134.869 35.432 135.034 35.6827 135.365 35.864C135.706 36.0453 136.165 36.2 136.741 36.328C137.231 36.4347 137.695 36.568 138.133 36.728C138.581 36.8773 138.943 37.1067 139.221 37.416C139.509 37.7147 139.653 38.152 139.653 38.728C139.663 39.4427 139.391 40.0347 138.837 40.504C138.293 40.9627 137.551 41.192 136.613 41.192ZM145.183 41L149.311 29.8H150.735L154.847 41H153.423L152.399 38.12H147.631L146.591 41H145.183ZM148.031 37.032H151.999L150.015 31.496L148.031 37.032ZM156.432 41V33.064H157.648L157.728 34.488C157.984 33.9867 158.352 33.592 158.832 33.304C159.312 33.016 159.856 32.872 160.464 32.872C161.403 32.872 162.149 33.16 162.704 33.736C163.269 34.3013 163.552 35.176 163.552 36.36V41H162.208V36.504C162.208 34.8507 161.525 34.024 160.16 34.024C159.477 34.024 158.907 34.2747 158.448 34.776C158 35.2667 157.776 35.9707 157.776 36.888V41H156.432ZM168.724 38.504C168.276 38.504 167.866 38.4453 167.492 38.328L166.692 39.08C166.81 39.1653 166.954 39.24 167.124 39.304C167.306 39.3573 167.562 39.4107 167.892 39.464C168.223 39.5067 168.687 39.5547 169.284 39.608C170.351 39.6827 171.114 39.928 171.572 40.344C172.031 40.76 172.26 41.304 172.26 41.976C172.26 42.4347 172.132 42.872 171.876 43.288C171.631 43.704 171.247 44.0453 170.724 44.312C170.212 44.5787 169.551 44.712 168.74 44.712C168.026 44.712 167.391 44.616 166.836 44.424C166.282 44.2427 165.85 43.96 165.54 43.576C165.231 43.2027 165.076 42.728 165.076 42.152C165.076 41.8533 165.156 41.528 165.316 41.176C165.476 40.8347 165.775 40.5093 166.212 40.2C165.978 40.104 165.775 40.0027 165.604 39.896C165.444 39.7787 165.295 39.6507 165.156 39.512V39.144L166.516 37.8C165.887 37.2667 165.572 36.5627 165.572 35.688C165.572 35.1653 165.695 34.6907 165.94 34.264C166.186 33.8373 166.543 33.5013 167.012 33.256C167.482 33 168.052 32.872 168.724 32.872C169.183 32.872 169.599 32.936 169.972 33.064H172.9V34.072L171.412 34.136C171.722 34.584 171.876 35.1013 171.876 35.688C171.876 36.2107 171.748 36.6853 171.492 37.112C171.247 37.5387 170.89 37.88 170.42 38.136C169.962 38.3813 169.396 38.504 168.724 38.504ZM168.724 37.4C169.29 37.4 169.738 37.256 170.068 36.968C170.41 36.6693 170.58 36.2427 170.58 35.688C170.58 35.144 170.41 34.728 170.068 34.44C169.738 34.1413 169.29 33.992 168.724 33.992C168.148 33.992 167.69 34.1413 167.348 34.44C167.018 34.728 166.852 35.144 166.852 35.688C166.852 36.2427 167.018 36.6693 167.348 36.968C167.69 37.256 168.148 37.4 168.724 37.4ZM166.388 42.024C166.388 42.5573 166.612 42.952 167.06 43.208C167.508 43.4747 168.068 43.608 168.74 43.608C169.402 43.608 169.93 43.464 170.324 43.176C170.73 42.888 170.932 42.504 170.932 42.024C170.932 41.6827 170.794 41.384 170.516 41.128C170.239 40.8827 169.727 40.7387 168.98 40.696C168.394 40.6533 167.887 40.6 167.46 40.536C167.023 40.7707 166.735 41.0213 166.596 41.288C166.458 41.5653 166.388 41.8107 166.388 42.024ZM177.672 41.192C176.915 41.192 176.243 41.0213 175.656 40.68C175.069 40.328 174.605 39.8427 174.264 39.224C173.933 38.6053 173.768 37.8747 173.768 37.032C173.768 36.2 173.933 35.4747 174.264 34.856C174.595 34.2267 175.053 33.7413 175.64 33.4C176.237 33.048 176.925 32.872 177.704 32.872C178.472 32.872 179.133 33.048 179.688 33.4C180.253 33.7413 180.685 34.1947 180.984 34.76C181.283 35.3253 181.432 35.9333 181.432 36.584C181.432 36.7013 181.427 36.8187 181.416 36.936C181.416 37.0533 181.416 37.1867 181.416 37.336H175.096C175.128 37.944 175.267 38.4507 175.512 38.856C175.768 39.2507 176.083 39.5493 176.456 39.752C176.84 39.9547 177.245 40.056 177.672 40.056C178.227 40.056 178.691 39.928 179.064 39.672C179.437 39.416 179.709 39.0693 179.88 38.632H181.208C180.995 39.368 180.584 39.9813 179.976 40.472C179.379 40.952 178.611 41.192 177.672 41.192ZM177.672 34.008C177.032 34.008 176.461 34.2053 175.96 34.6C175.469 34.984 175.187 35.5493 175.112 36.296H180.104C180.072 35.5813 179.827 35.0213 179.368 34.616C178.909 34.2107 178.344 34.008 177.672 34.008ZM183.213 41V29.48H184.557V41H183.213ZM190.328 41.192C189.571 41.192 188.899 41.0213 188.312 40.68C187.726 40.328 187.262 39.8427 186.92 39.224C186.59 38.6053 186.424 37.8747 186.424 37.032C186.424 36.2 186.59 35.4747 186.92 34.856C187.251 34.2267 187.71 33.7413 188.296 33.4C188.894 33.048 189.582 32.872 190.36 32.872C191.128 32.872 191.79 33.048 192.344 33.4C192.91 33.7413 193.342 34.1947 193.64 34.76C193.939 35.3253 194.088 35.9333 194.088 36.584C194.088 36.7013 194.083 36.8187 194.072 36.936C194.072 37.0533 194.072 37.1867 194.072 37.336H187.752C187.784 37.944 187.923 38.4507 188.168 38.856C188.424 39.2507 188.739 39.5493 189.112 39.752C189.496 39.9547 189.902 40.056 190.328 40.056C190.883 40.056 191.347 39.928 191.72 39.672C192.094 39.416 192.366 39.0693 192.536 38.632H193.864C193.651 39.368 193.24 39.9813 192.632 40.472C192.035 40.952 191.267 41.192 190.328 41.192ZM190.328 34.008C189.688 34.008 189.118 34.2053 188.616 34.6C188.126 34.984 187.843 35.5493 187.768 36.296H192.76C192.728 35.5813 192.483 35.0213 192.024 34.616C191.566 34.2107 191 34.008 190.328 34.008ZM198.91 41.192C197.96 41.192 197.171 40.952 196.542 40.472C195.912 39.992 195.544 39.3413 195.438 38.52H196.814C196.899 38.936 197.118 39.2987 197.47 39.608C197.832 39.9067 198.318 40.056 198.926 40.056C199.491 40.056 199.907 39.9387 200.174 39.704C200.44 39.4587 200.574 39.1707 200.574 38.84C200.574 38.36 200.398 38.04 200.046 37.88C199.704 37.72 199.219 37.576 198.59 37.448C198.163 37.3627 197.736 37.24 197.31 37.08C196.883 36.92 196.526 36.696 196.238 36.408C195.95 36.1093 195.806 35.72 195.806 35.24C195.806 34.5467 196.062 33.9813 196.574 33.544C197.096 33.096 197.8 32.872 198.686 32.872C199.528 32.872 200.216 33.0853 200.75 33.512C201.294 33.928 201.608 34.5253 201.694 35.304H200.366C200.312 34.8987 200.136 34.584 199.838 34.36C199.55 34.1253 199.16 34.008 198.67 34.008C198.19 34.008 197.816 34.1093 197.55 34.312C197.294 34.5147 197.166 34.7813 197.166 35.112C197.166 35.432 197.331 35.6827 197.662 35.864C198.003 36.0453 198.462 36.2 199.038 36.328C199.528 36.4347 199.992 36.568 200.43 36.728C200.878 36.8773 201.24 37.1067 201.518 37.416C201.806 37.7147 201.95 38.152 201.95 38.728C201.96 39.4427 201.688 40.0347 201.134 40.504C200.59 40.9627 199.848 41.192 198.91 41.192Z" fill="#F9F9F7"/>
</svg>
