<svg width="176" height="35" viewBox="0 0 176 35" fill="none" xmlns="http://www.w3.org/2000/svg">
<circle cx="17.5" cy="17.5" r="17.5" fill="#AD343E"/>
<path d="M25.2487 13.7333C24.7249 13.9661 24.172 14.1116 23.59 14.1989C24.172 13.8497 24.6376 13.2968 24.8413 12.6275C24.2884 12.9476 23.6773 13.1804 23.0081 13.3259C22.4843 12.773 21.7277 12.4238 20.9129 12.4238C19.3416 12.4238 18.0613 13.7042 18.0613 15.2755C18.0613 15.5083 18.0904 15.712 18.1486 15.9157C15.7916 15.7993 13.6673 14.6644 12.2415 12.9185C12.0087 13.355 11.8632 13.8206 11.8632 14.3443C11.8632 15.3337 12.3579 16.2067 13.1436 16.7304C12.678 16.7013 12.2415 16.585 11.8341 16.3813V16.4104C11.8341 17.8071 12.8235 18.971 14.1329 19.2329C13.9001 19.2911 13.6383 19.3202 13.3764 19.3202C13.2018 19.3202 12.9981 19.2911 12.8235 19.262C13.2018 20.3969 14.2493 21.2408 15.5006 21.2408C14.5112 21.9973 13.2891 22.4629 11.9505 22.4629C11.7177 22.4629 11.4849 22.4629 11.2812 22.4338C12.5616 23.2486 14.0456 23.7141 15.6752 23.7141C20.942 23.7141 23.8228 19.3493 23.8228 15.5665C23.8228 15.4501 23.8228 15.3046 23.8228 15.1882C24.3757 14.8099 24.8704 14.3152 25.2487 13.7333Z" fill="white"/>
<circle cx="64.5" cy="17.5" r="17.5" fill="#AD343E"/>
<path d="M62.883 25.3846V18.4427H60.5469V15.7373H62.883V13.7421C62.883 11.4268 64.2971 10.166 66.3626 10.166C67.352 10.166 68.2023 10.2397 68.4501 10.2726V12.6923L67.0176 12.6929C65.8943 12.6929 65.6768 13.2267 65.6768 14.01V15.7373H68.3558L68.007 18.4427H65.6768V25.3846H62.883Z" fill="white"/>
<circle cx="111.5" cy="17.5" r="17.5" fill="#AD343E"/>
<path d="M111.499 10.5639C113.76 10.5639 114.028 10.5724 114.921 10.6131C115.458 10.6197 115.99 10.7183 116.493 10.9046C116.859 11.0455 117.19 11.2613 117.467 11.5381C117.744 11.8149 117.96 12.1466 118.101 12.5119C118.287 13.0156 118.386 13.5475 118.392 14.0845C118.432 14.9776 118.441 15.2453 118.441 17.5062C118.441 19.7671 118.433 20.0349 118.392 20.928C118.386 21.465 118.287 21.9969 118.101 22.5006C117.96 22.8658 117.744 23.1976 117.467 23.4744C117.19 23.7512 116.859 23.967 116.493 24.1078C115.99 24.2942 115.458 24.3928 114.921 24.3994C114.028 24.4397 113.76 24.4486 111.499 24.4486C109.238 24.4486 108.97 24.4401 108.077 24.3994C107.54 24.3928 107.008 24.2942 106.505 24.1078C106.139 23.967 105.808 23.7512 105.531 23.4744C105.254 23.1976 105.038 22.8658 104.897 22.5006C104.711 21.9969 104.612 21.465 104.606 20.928C104.566 20.0349 104.557 19.7671 104.557 17.5062C104.557 15.2453 104.565 14.9776 104.606 14.0845C104.612 13.5475 104.711 13.0156 104.897 12.5119C105.038 12.1466 105.254 11.8149 105.531 11.5381C105.808 11.2613 106.139 11.0455 106.505 10.9046C107.008 10.7183 107.54 10.6197 108.077 10.6131C108.97 10.5728 109.238 10.5639 111.499 10.5639ZM111.499 9.03809C109.201 9.03809 108.911 9.04776 108.008 9.08889C107.305 9.10287 106.61 9.23594 105.951 9.48244C105.387 9.69521 104.875 10.0286 104.453 10.4595C104.021 10.8822 103.688 11.394 103.475 11.9591C103.228 12.6174 103.095 13.3127 103.081 14.0155C103.041 14.9179 103.031 15.2074 103.031 17.5058C103.031 19.8042 103.041 20.0937 103.082 20.997C103.096 21.6998 103.229 22.3951 103.476 23.0534C103.688 23.6184 104.022 24.1302 104.453 24.553C104.875 24.9839 105.387 25.3174 105.952 25.53C106.611 25.7765 107.306 25.9096 108.009 25.9236C108.912 25.9639 109.2 25.9744 111.5 25.9744C113.799 25.9744 114.088 25.9647 114.991 25.9236C115.694 25.9096 116.389 25.7765 117.047 25.53C117.61 25.3121 118.12 24.9791 118.547 24.5525C118.973 24.1259 119.306 23.6151 119.523 23.0526C119.77 22.3943 119.903 21.699 119.917 20.9962C119.957 20.0937 119.967 19.8042 119.967 17.5058C119.967 15.2074 119.957 14.9179 119.916 14.0147C119.902 13.3119 119.769 12.6166 119.522 11.9582C119.31 11.3932 118.976 10.8815 118.545 10.4587C118.123 10.0277 117.611 9.6943 117.046 9.48163C116.387 9.23513 115.692 9.10206 114.989 9.08809C114.087 9.04776 113.797 9.03809 111.499 9.03809Z" fill="white"/>
<path d="M111.497 13.1621C110.637 13.1621 109.796 13.4171 109.081 13.8949C108.366 14.3728 107.809 15.0519 107.479 15.8464C107.15 16.641 107.064 17.5153 107.232 18.3588C107.4 19.2023 107.814 19.9771 108.422 20.5853C109.03 21.1934 109.805 21.6075 110.648 21.7753C111.492 21.9431 112.366 21.857 113.161 21.5279C113.955 21.1988 114.635 20.6414 115.112 19.9263C115.59 19.2112 115.845 18.3705 115.845 17.5105C115.845 16.3572 115.387 15.2512 114.572 14.4357C113.756 13.6202 112.65 13.1621 111.497 13.1621ZM111.497 20.3331C110.939 20.3331 110.393 20.1675 109.929 19.8574C109.465 19.5472 109.103 19.1064 108.889 18.5907C108.675 18.0749 108.62 17.5074 108.728 16.9598C108.837 16.4123 109.106 15.9094 109.501 15.5146C109.896 15.1199 110.399 14.8511 110.946 14.7422C111.494 14.6332 112.061 14.6891 112.577 14.9028C113.093 15.1164 113.534 15.4782 113.844 15.9424C114.154 16.4065 114.319 16.9522 114.319 17.5105C114.319 18.2591 114.022 18.977 113.493 19.5064C112.963 20.0357 112.245 20.3331 111.497 20.3331Z" fill="white"/>
<path d="M116.032 14.0039C116.593 14.0039 117.048 13.549 117.048 12.9878C117.048 12.4266 116.593 11.9717 116.032 11.9717C115.471 11.9717 115.016 12.4266 115.016 12.9878C115.016 13.549 115.471 14.0039 116.032 14.0039Z" fill="white"/>
<circle cx="158.5" cy="17.5" r="17.5" fill="#AD343E"/>
<path fill-rule="evenodd" clip-rule="evenodd" d="M159.28 9.03809C154.791 9.03809 151.18 12.6493 151.18 17.138C151.18 20.7154 153.508 23.7528 156.715 24.8328C157.12 24.9003 157.255 24.6641 157.255 24.4278C157.255 24.2253 157.255 23.7191 157.255 23.0441C154.993 23.5504 154.521 21.9641 154.521 21.9641C154.15 21.0191 153.61 20.7829 153.61 20.7829C152.867 20.2767 153.677 20.2767 153.677 20.2767C154.487 20.3442 154.926 21.1204 154.926 21.1204C155.635 22.3691 156.816 21.9979 157.288 21.7954C157.356 21.2554 157.558 20.9179 157.795 20.7154C156.006 20.5129 154.116 19.8042 154.116 16.6992C154.116 15.8217 154.42 15.0792 154.96 14.5392C154.892 14.3367 154.588 13.5268 155.027 12.3793C155.027 12.3793 155.702 12.1768 157.255 13.223C157.896 13.0543 158.605 12.953 159.28 12.953C159.955 12.953 160.663 13.0543 161.305 13.223C162.857 12.1768 163.532 12.3793 163.532 12.3793C163.971 13.493 163.701 14.303 163.599 14.5392C164.106 15.113 164.443 15.8217 164.443 16.6992C164.443 19.8042 162.553 20.4791 160.731 20.6816C161.035 20.9179 161.271 21.4241 161.271 22.1666C161.271 23.2466 161.271 24.1241 161.271 24.3941C161.271 24.5966 161.406 24.8666 161.845 24.7991C165.051 23.7528 167.379 20.7154 167.379 17.138C167.379 12.6493 163.768 9.03809 159.28 9.03809Z" fill="white"/>
</svg>
