<svg width="56" height="55" viewBox="0 0 56 55" fill="none" xmlns="http://www.w3.org/2000/svg">
<path d="M47.6694 0.80386C47.3608 0.625829 46.993 0.575098 46.6464 0.66277C46.2999 0.750441 46.0028 0.969375 45.8202 1.27166L36.1488 17.3631C36.0992 17.4465 36.0592 17.5351 36.0294 17.6272C34.9473 18.0212 33.9373 18.5848 33.0386 19.2959C30.1082 14.4064 24.7389 11.3276 18.8731 11.3276C9.82201 11.3276 2.45955 18.5483 2.43432 27.4317H0.300781L0.49155 28.924C1.6017 37.597 7.04786 45.1725 14.8786 49.1616V54.2826H35.0842C37.6454 54.2826 39.7291 52.2343 39.7291 49.7182V49.1622C47.5623 45.1713 53.006 37.5958 54.1186 28.924L54.3094 27.4305H50.4565C50.4386 22.8963 47.478 19.0415 43.3599 17.5861L55.4263 6.18177C55.9629 5.67468 55.9802 4.83457 55.462 4.30754C55.3392 4.18206 55.1925 4.08157 55.0302 4.01181C54.8678 3.94205 54.6931 3.90438 54.5159 3.90095C54.3388 3.89753 54.1627 3.92842 53.9977 3.99186C53.8327 4.05529 53.682 4.15004 53.5543 4.27067L40.1131 16.9763C39.9925 16.9714 39.8725 16.9581 39.75 16.9581C39.6725 16.9581 39.598 16.969 39.5217 16.9702L48.1457 2.62007C48.2359 2.4701 48.2951 2.30416 48.3199 2.13172C48.3448 1.95928 48.3348 1.78372 48.2906 1.61507C48.2464 1.44641 48.1687 1.28797 48.0621 1.14878C47.9556 1.00959 47.8221 0.892386 47.6694 0.80386ZM18.8725 13.9803C24.0399 13.9803 28.75 16.8373 31.0928 21.3134C30.2387 22.4672 29.6331 23.7799 29.3131 25.1713C28.2392 20.4763 23.9697 16.9569 18.8725 16.9569C12.9851 16.9569 8.19555 21.6519 8.17032 27.4311H5.13524C5.15986 20.0109 11.3112 13.9803 18.8725 13.9803ZM18.8725 22.5935C16.1463 22.5935 13.9279 24.7603 13.9026 27.4311H10.8719C10.8971 23.1145 14.4743 19.6102 18.8725 19.6102C23.2719 19.6102 26.8528 23.1145 26.8755 27.4311H23.8411C23.8171 24.7603 21.5986 22.5935 18.8725 22.5935ZM21.1383 27.4317H16.6066C16.6187 26.8487 16.8627 26.2935 17.2865 25.885C17.7102 25.4765 18.28 25.2472 18.8737 25.2462C19.4672 25.2474 20.0366 25.4768 20.4599 25.8853C20.8832 26.2938 21.1267 26.849 21.1383 27.4317ZM51.1974 30.0844C49.6965 37.7929 44.374 44.3645 36.9974 47.5122H32.6743V50.1655H36.9685C36.8674 50.5818 36.6266 50.9526 36.2849 51.2182C35.9433 51.4838 35.5205 51.6288 35.0848 51.6299H17.5802V50.1655H22.6442V47.5122H17.6128C10.2362 44.3663 4.91309 37.7929 3.41094 30.0844H51.1974ZM37.4848 27.4317C37.4967 26.849 37.7404 26.2939 38.1638 25.8854C38.5872 25.477 39.1565 25.2475 39.75 25.2462C40.344 25.2467 40.9142 25.4758 41.3382 25.8844C41.7623 26.2929 42.0064 26.8484 42.0183 27.4317H37.4848ZM39.75 19.6108C44.1512 19.6108 47.7334 23.1151 47.7568 27.4317H44.7205C44.6959 24.7609 42.4768 22.5941 39.75 22.5941C37.0239 22.5941 34.8072 24.7609 34.7826 27.4317H31.7494C31.774 23.1151 35.3512 19.6108 39.75 19.6108Z" fill="white"/>
</svg>
